<mxfile host="app.diagrams.net" agent="Mozilla/5.0 (X11; Linux x86_64) AppleWebKit/537.36 (KHTML, like Gecko) Chrome/135.0.0.0 Safari/537.36" version="26.2.12">
  <diagram name="Page-1" id="6TSWMsanCY75kPvOS4f4">
    <mxGraphModel dx="1243" dy="1515" grid="1" gridSize="10" guides="1" tooltips="1" connect="1" arrows="1" fold="1" page="1" pageScale="1" pageWidth="1169" pageHeight="827" background="none" math="0" shadow="0">
      <root>
        <mxCell id="0" />
        <mxCell id="1" parent="0" />
        <mxCell id="YPltnAkmp6n6hQ-FOq6g-1" value="&lt;font style=&quot;font-size: 19px;&quot;&gt;Sucess&lt;/font&gt;" style="outlineConnect=0;dashed=0;verticalLabelPosition=bottom;verticalAlign=top;align=center;html=1;shape=mxgraph.aws3.bucket_with_objects;fillColor=#60a917;fontColor=#000033;strokeColor=#2D7600;fontSize=14;" parent="1" vertex="1">
          <mxGeometry x="940" y="340" width="60" height="61.5" as="geometry" />
        </mxCell>
        <mxCell id="YPltnAkmp6n6hQ-FOq6g-2" value="&lt;font style=&quot;font-size: 18px;&quot;&gt;Fail&lt;/font&gt;" style="outlineConnect=0;dashed=0;verticalLabelPosition=bottom;verticalAlign=top;align=center;html=1;shape=mxgraph.aws3.bucket_with_objects;fillColor=#E05243;gradientColor=none;" parent="1" vertex="1">
          <mxGeometry x="900" y="-10" width="60" height="61.5" as="geometry" />
        </mxCell>
        <mxCell id="YPltnAkmp6n6hQ-FOq6g-3" value="&lt;font style=&quot;font-size: 18px;&quot;&gt;Incoming&lt;/font&gt;" style="outlineConnect=0;dashed=0;verticalLabelPosition=bottom;verticalAlign=top;align=center;html=1;shape=mxgraph.aws3.bucket_with_objects;fillColor=#0050ef;fontColor=#000000;strokeColor=#001DBC;" parent="1" vertex="1">
          <mxGeometry x="140" y="140" width="60" height="61.5" as="geometry" />
        </mxCell>
        <mxCell id="YPltnAkmp6n6hQ-FOq6g-7" style="edgeStyle=orthogonalEdgeStyle;rounded=0;orthogonalLoop=1;jettySize=auto;html=1;" parent="1" source="YPltnAkmp6n6hQ-FOq6g-5" target="YPltnAkmp6n6hQ-FOq6g-6" edge="1">
          <mxGeometry relative="1" as="geometry" />
        </mxCell>
        <mxCell id="YPltnAkmp6n6hQ-FOq6g-25" style="edgeStyle=orthogonalEdgeStyle;rounded=0;orthogonalLoop=1;jettySize=auto;html=1;" parent="1" source="YPltnAkmp6n6hQ-FOq6g-5" target="YPltnAkmp6n6hQ-FOq6g-17" edge="1">
          <mxGeometry relative="1" as="geometry" />
        </mxCell>
        <mxCell id="YPltnAkmp6n6hQ-FOq6g-26" value="&lt;font style=&quot;font-size: 16px;&quot;&gt;Client can query&amp;nbsp;&lt;/font&gt;&lt;div&gt;&lt;font style=&quot;font-size: 16px;&quot;&gt;DB to get results&lt;/font&gt;&lt;/div&gt;" style="edgeLabel;html=1;align=center;verticalAlign=middle;resizable=0;points=[];" parent="YPltnAkmp6n6hQ-FOq6g-25" vertex="1" connectable="0">
          <mxGeometry x="-0.5154" y="5" relative="1" as="geometry">
            <mxPoint x="34" y="5" as="offset" />
          </mxGeometry>
        </mxCell>
        <mxCell id="YPltnAkmp6n6hQ-FOq6g-5" value="&lt;font style=&quot;font-size: 16px;&quot;&gt;API-Client&lt;/font&gt;" style="points=[[0.35,0,0],[0.98,0.51,0],[1,0.71,0],[0.67,1,0],[0,0.795,0],[0,0.65,0]];verticalLabelPosition=bottom;sketch=0;html=1;verticalAlign=top;aspect=fixed;align=center;pointerEvents=1;shape=mxgraph.cisco19.user;fillColor=#005073;strokeColor=none;" parent="1" vertex="1">
          <mxGeometry x="20" y="300" width="50" height="50" as="geometry" />
        </mxCell>
        <mxCell id="YPltnAkmp6n6hQ-FOq6g-6" value="" style="sketch=0;outlineConnect=0;fontColor=#232F3E;gradientColor=none;fillColor=#ED7100;strokeColor=none;dashed=0;verticalLabelPosition=bottom;verticalAlign=top;align=center;html=1;fontSize=12;fontStyle=0;aspect=fixed;pointerEvents=1;shape=mxgraph.aws4.container_registry_image;" parent="1" vertex="1">
          <mxGeometry x="21" y="192" width="48" height="48" as="geometry" />
        </mxCell>
        <mxCell id="YPltnAkmp6n6hQ-FOq6g-8" style="edgeStyle=orthogonalEdgeStyle;rounded=0;orthogonalLoop=1;jettySize=auto;html=1;entryX=0.06;entryY=0.5;entryDx=0;entryDy=0;entryPerimeter=0;" parent="1" source="YPltnAkmp6n6hQ-FOq6g-6" target="YPltnAkmp6n6hQ-FOq6g-3" edge="1">
          <mxGeometry relative="1" as="geometry">
            <Array as="points">
              <mxPoint x="45" y="170" />
              <mxPoint x="134" y="170" />
            </Array>
          </mxGeometry>
        </mxCell>
        <mxCell id="YPltnAkmp6n6hQ-FOq6g-13" style="edgeStyle=orthogonalEdgeStyle;rounded=0;orthogonalLoop=1;jettySize=auto;html=1;" parent="1" source="YPltnAkmp6n6hQ-FOq6g-9" target="YPltnAkmp6n6hQ-FOq6g-12" edge="1">
          <mxGeometry relative="1" as="geometry" />
        </mxCell>
        <mxCell id="YPltnAkmp6n6hQ-FOq6g-14" value="&lt;font style=&quot;font-size: 16px;&quot;&gt;2. On object creation&lt;/font&gt;&lt;div&gt;&lt;font style=&quot;font-size: 16px;&quot;&gt;S3 lambda sends&amp;nbsp;&lt;/font&gt;&lt;/div&gt;&lt;div&gt;&lt;font style=&quot;font-size: 16px;&quot;&gt;an event to cat-wrangler&lt;/font&gt;&lt;/div&gt;" style="edgeLabel;html=1;align=center;verticalAlign=middle;resizable=0;points=[];" parent="YPltnAkmp6n6hQ-FOq6g-13" vertex="1" connectable="0">
          <mxGeometry x="-0.0809" relative="1" as="geometry">
            <mxPoint as="offset" />
          </mxGeometry>
        </mxCell>
        <mxCell id="YPltnAkmp6n6hQ-FOq6g-9" value="&lt;font style=&quot;font-size: 18px;&quot;&gt;S3 Event&amp;nbsp;&lt;/font&gt;&lt;div&gt;&lt;font style=&quot;font-size: 18px;&quot;&gt;Lambda&lt;/font&gt;&lt;/div&gt;" style="outlineConnect=0;dashed=0;verticalLabelPosition=bottom;verticalAlign=top;align=center;html=1;shape=mxgraph.aws3.lambda_function;fillColor=#5294CF;gradientColor=none;" parent="1" vertex="1">
          <mxGeometry x="270" y="20" width="60" height="63" as="geometry" />
        </mxCell>
        <mxCell id="YPltnAkmp6n6hQ-FOq6g-10" style="edgeStyle=orthogonalEdgeStyle;rounded=0;orthogonalLoop=1;jettySize=auto;html=1;entryX=0;entryY=0.5;entryDx=0;entryDy=0;entryPerimeter=0;startArrow=classic;startFill=1;endArrow=oval;endFill=1;" parent="1" source="YPltnAkmp6n6hQ-FOq6g-3" target="YPltnAkmp6n6hQ-FOq6g-9" edge="1">
          <mxGeometry relative="1" as="geometry">
            <Array as="points">
              <mxPoint x="170" y="52" />
              <mxPoint x="235" y="52" />
            </Array>
          </mxGeometry>
        </mxCell>
        <mxCell id="YPltnAkmp6n6hQ-FOq6g-11" value="&lt;span style=&quot;font-size: 16px;&quot;&gt;1. S3 lambda checks&lt;/span&gt;&lt;div&gt;&lt;span style=&quot;font-size: 16px;&quot;&gt;bucket for new objects&lt;/span&gt;&lt;/div&gt;" style="edgeLabel;html=1;align=center;verticalAlign=middle;resizable=0;points=[];" parent="YPltnAkmp6n6hQ-FOq6g-10" vertex="1" connectable="0">
          <mxGeometry x="-0.3235" y="3" relative="1" as="geometry">
            <mxPoint x="-47" y="-16" as="offset" />
          </mxGeometry>
        </mxCell>
        <mxCell id="YPltnAkmp6n6hQ-FOq6g-15" style="edgeStyle=orthogonalEdgeStyle;rounded=0;orthogonalLoop=1;jettySize=auto;html=1;startArrow=classic;startFill=1;endArrow=oval;endFill=1;" parent="1" source="YPltnAkmp6n6hQ-FOq6g-12" target="YPltnAkmp6n6hQ-FOq6g-3" edge="1">
          <mxGeometry relative="1" as="geometry">
            <mxPoint x="860" y="170" as="targetPoint" />
            <mxPoint x="510" y="180" as="sourcePoint" />
            <Array as="points">
              <mxPoint x="450" y="180" />
              <mxPoint x="450" y="180" />
            </Array>
          </mxGeometry>
        </mxCell>
        <mxCell id="YPltnAkmp6n6hQ-FOq6g-16" value="&lt;font style=&quot;font-size: 16px;&quot;&gt;3. Image is read&lt;/font&gt;&lt;div&gt;&lt;font style=&quot;font-size: 16px;&quot;&gt;&amp;nbsp;from S3&lt;/font&gt;&lt;/div&gt;" style="edgeLabel;html=1;align=center;verticalAlign=middle;resizable=0;points=[];" parent="YPltnAkmp6n6hQ-FOq6g-15" vertex="1" connectable="0">
          <mxGeometry x="-0.1011" y="-2" relative="1" as="geometry">
            <mxPoint x="-34" y="2" as="offset" />
          </mxGeometry>
        </mxCell>
        <mxCell id="YPltnAkmp6n6hQ-FOq6g-18" style="edgeStyle=orthogonalEdgeStyle;rounded=0;orthogonalLoop=1;jettySize=auto;html=1;" parent="1" source="YPltnAkmp6n6hQ-FOq6g-12" target="YPltnAkmp6n6hQ-FOq6g-17" edge="1">
          <mxGeometry relative="1" as="geometry">
            <Array as="points">
              <mxPoint x="510" y="179" />
              <mxPoint x="510" y="325" />
            </Array>
          </mxGeometry>
        </mxCell>
        <mxCell id="YPltnAkmp6n6hQ-FOq6g-19" value="&lt;font style=&quot;font-size: 16px;&quot;&gt;4. Operation details&lt;/font&gt;&lt;div&gt;&lt;font style=&quot;font-size: 16px;&quot;&gt;are stored in DB&lt;/font&gt;&lt;/div&gt;&lt;div&gt;&lt;font style=&quot;font-size: 16px;&quot;&gt;for all process steps&lt;/font&gt;&lt;/div&gt;" style="edgeLabel;html=1;align=center;verticalAlign=middle;resizable=0;points=[];" parent="YPltnAkmp6n6hQ-FOq6g-18" vertex="1" connectable="0">
          <mxGeometry x="0.1087" y="-3" relative="1" as="geometry">
            <mxPoint as="offset" />
          </mxGeometry>
        </mxCell>
        <mxCell id="YPltnAkmp6n6hQ-FOq6g-20" style="edgeStyle=orthogonalEdgeStyle;rounded=0;orthogonalLoop=1;jettySize=auto;html=1;" parent="1" source="YPltnAkmp6n6hQ-FOq6g-12" target="YPltnAkmp6n6hQ-FOq6g-1" edge="1">
          <mxGeometry relative="1" as="geometry">
            <mxPoint x="740" y="280" as="targetPoint" />
            <Array as="points">
              <mxPoint x="800" y="179" />
              <mxPoint x="800" y="271" />
              <mxPoint x="880" y="271" />
            </Array>
          </mxGeometry>
        </mxCell>
        <mxCell id="YPltnAkmp6n6hQ-FOq6g-23" value="&lt;font style=&quot;font-size: 16px;&quot;&gt;6b. If process succeeds:&lt;/font&gt;&lt;div&gt;&lt;font style=&quot;font-size: 16px;&quot;&gt;Image copied to&amp;nbsp;&lt;/font&gt;&lt;/div&gt;&lt;div&gt;&lt;font style=&quot;font-size: 16px;&quot;&gt;sucess bucket&lt;/font&gt;&lt;/div&gt;" style="edgeLabel;html=1;align=center;verticalAlign=middle;resizable=0;points=[];" parent="YPltnAkmp6n6hQ-FOq6g-20" vertex="1" connectable="0">
          <mxGeometry x="0.009" relative="1" as="geometry">
            <mxPoint x="130" y="34" as="offset" />
          </mxGeometry>
        </mxCell>
        <mxCell id="YPltnAkmp6n6hQ-FOq6g-12" value="&lt;blockquote style=&quot;margin: 0 0 0 40px; border: none; padding: 0px;&quot;&gt;&lt;font style=&quot;font-size: 16px;&quot;&gt;Cat-Wrangler&lt;/font&gt;&lt;div&gt;&lt;font style=&quot;font-size: 16px;&quot;&gt;Lambda&lt;/font&gt;&lt;/div&gt;&lt;/blockquote&gt;" style="sketch=0;outlineConnect=0;fontColor=#232F3E;gradientColor=none;fillColor=#7AA116;strokeColor=none;dashed=0;verticalLabelPosition=bottom;verticalAlign=top;align=center;html=1;fontSize=12;fontStyle=0;aspect=fixed;pointerEvents=1;shape=mxgraph.aws4.lambda_function;" parent="1" vertex="1">
          <mxGeometry x="520" y="140" width="78" height="78" as="geometry" />
        </mxCell>
        <mxCell id="YPltnAkmp6n6hQ-FOq6g-17" value="&lt;font style=&quot;font-size: 16px;&quot;&gt;DynamoDB Table&lt;/font&gt;" style="verticalLabelPosition=bottom;html=1;verticalAlign=top;strokeWidth=1;align=center;outlineConnect=0;dashed=0;outlineConnect=0;shape=mxgraph.aws3d.dynamoDb;fillColor=#ECECEC;strokeColor=#5E5E5E;aspect=fixed;" parent="1" vertex="1">
          <mxGeometry x="310" y="320" width="60.5" height="70" as="geometry" />
        </mxCell>
        <mxCell id="YPltnAkmp6n6hQ-FOq6g-21" style="edgeStyle=orthogonalEdgeStyle;rounded=0;orthogonalLoop=1;jettySize=auto;html=1;entryX=0.06;entryY=0.5;entryDx=0;entryDy=0;entryPerimeter=0;" parent="1" source="YPltnAkmp6n6hQ-FOq6g-12" target="YPltnAkmp6n6hQ-FOq6g-2" edge="1">
          <mxGeometry relative="1" as="geometry">
            <Array as="points">
              <mxPoint x="800" y="179" />
              <mxPoint x="800" y="21" />
            </Array>
          </mxGeometry>
        </mxCell>
        <mxCell id="YPltnAkmp6n6hQ-FOq6g-22" value="&lt;font style=&quot;font-size: 16px;&quot;&gt;6a. If process fails:&lt;/font&gt;&lt;div&gt;&lt;font style=&quot;font-size: 16px;&quot;&gt;Image copied to&amp;nbsp;&lt;/font&gt;&lt;/div&gt;&lt;div&gt;&lt;font style=&quot;font-size: 16px;&quot;&gt;fail bucket&lt;/font&gt;&lt;/div&gt;" style="edgeLabel;html=1;align=center;verticalAlign=middle;resizable=0;points=[];" parent="YPltnAkmp6n6hQ-FOq6g-21" vertex="1" connectable="0">
          <mxGeometry x="0.2617" relative="1" as="geometry">
            <mxPoint y="-11" as="offset" />
          </mxGeometry>
        </mxCell>
        <mxCell id="YPltnAkmp6n6hQ-FOq6g-28" value="" style="sketch=0;points=[[0,0,0],[0.25,0,0],[0.5,0,0],[0.75,0,0],[1,0,0],[0,1,0],[0.25,1,0],[0.5,1,0],[0.75,1,0],[1,1,0],[0,0.25,0],[0,0.5,0],[0,0.75,0],[1,0.25,0],[1,0.5,0],[1,0.75,0]];outlineConnect=0;fontColor=#232F3E;fillColor=#01A88D;strokeColor=#ffffff;dashed=0;verticalLabelPosition=bottom;verticalAlign=top;align=center;html=1;fontSize=12;fontStyle=0;aspect=fixed;shape=mxgraph.aws4.resourceIcon;resIcon=mxgraph.aws4.rekognition_2;" parent="1" vertex="1">
          <mxGeometry x="660" y="410" width="78" height="78" as="geometry" />
        </mxCell>
        <mxCell id="YPltnAkmp6n6hQ-FOq6g-29" style="edgeStyle=orthogonalEdgeStyle;rounded=0;orthogonalLoop=1;jettySize=auto;html=1;entryX=0.5;entryY=0;entryDx=0;entryDy=0;entryPerimeter=0;" parent="1" source="YPltnAkmp6n6hQ-FOq6g-12" target="YPltnAkmp6n6hQ-FOq6g-28" edge="1">
          <mxGeometry relative="1" as="geometry" />
        </mxCell>
        <mxCell id="YPltnAkmp6n6hQ-FOq6g-30" value="&lt;font style=&quot;font-size: 16px;&quot;&gt;5.Lambda queries&amp;nbsp;&lt;/font&gt;&lt;div&gt;&lt;font style=&quot;font-size: 16px;&quot;&gt;Rekognition to identify&lt;/font&gt;&lt;/div&gt;&lt;div&gt;&lt;font style=&quot;font-size: 16px;&quot;&gt;if image contains a cat.&lt;/font&gt;&lt;/div&gt;" style="edgeLabel;html=1;align=center;verticalAlign=middle;resizable=0;points=[];" parent="YPltnAkmp6n6hQ-FOq6g-29" vertex="1" connectable="0">
          <mxGeometry x="0.3526" y="-4" relative="1" as="geometry">
            <mxPoint y="1" as="offset" />
          </mxGeometry>
        </mxCell>
      </root>
    </mxGraphModel>
  </diagram>
</mxfile>
